# xmcd CD database file
#
# Track frame offsets:
#	150
#	15850
#	33435
#	48192
#	64609
#	80034
#	96204
#	109289
#	131189
#	150602
#	163804
#	185121
#	203306
#	214556
#
# Disc length: 3123 seconds
#
# Revision: 2
# Processed by: cddbd v1.5.2PL0 Copyright (c) Steve Scherf et al.
# Submitted via: CDex 1.91
#
DISCID=b60c310e
DTITLE=Various Artist - In The Mood
DYEAR=1900
DGENRE=Big Band
TTITLE0=Michael Maxwell and His Orchestra - In the Mood
TTITLE1=The Steve Wingfield Band - Sing, Sing, Sing
TTITLE2=The Steve Wingfield Band - Opus One
TTITLE3=The Steve Wingfield Band - Take The 'A' Train
TTITLE4=Michael Maxwell and His Orchestra - Chattanooga Choo Choo
TTITLE5=The Steve Wingfield Band - It Don't Mean A Thing (If It Ain't Got Swing)
TTITLE6=The Steve Wingfield Band - Song of India
TTITLE7=The Steve Wingfield Band - Boogie Woogie
TTITLE8=The Steve Wingfield Band - Caravan
TTITLE9=The Steve Wingfield Band - Stompin' At The Savoy
TTITLE10=The Steve Wingfield Band - Satin Doll
TTITLE11=The Steve Wingfield Band - 'C' Jam Blues
TTITLE12=The Steve Wingfield Band - Swing Time In The Rockies
TTITLE13=Michael Maxwell and His Orchestra - Don't Get Around Much Anymore
EXTD=
EXTT0=
EXTT1=
EXTT2=
EXTT3=
EXTT4=
EXTT5=
EXTT6=
EXTT7=
EXTT8=
EXTT9=
EXTT10=
EXTT11=
EXTT12=
EXTT13=
PLAYORDER=
